<svg width="340" viewBox="0 -16 441 186" fill="none" xmlns="http://www.w3.org/2000/svg">
<path d="M23.4961 55L21.1172 46.2695H22.1836L23.5957 51.7188C23.7871 52.4609 23.9609 53.2051 24.1172 53.9512C24.1914 53.5801 24.2734 53.209 24.3633 52.8379C24.4531 52.4629 24.5469 52.0898 24.6445 51.7188L26.0859 46.2695H27.3047L28.7344 51.7188C28.832 52.0859 28.9238 52.4531 29.0098 52.8203C29.0996 53.1836 29.1855 53.5488 29.2676 53.916C29.3457 53.5488 29.4277 53.1836 29.5137 52.8203C29.6035 52.4531 29.6953 52.0859 29.7891 51.7188L31.1953 46.2695H32.2734L29.8828 55H28.6523L27.123 49.375C27.041 49.0742 26.9648 48.7715 26.8945 48.4668C26.8242 48.1621 26.7559 47.8594 26.6895 47.5586C26.627 47.8594 26.5605 48.1621 26.4902 48.4668C26.4199 48.7715 26.3438 49.0742 26.2617 49.375L24.7383 55H23.4961ZM34.3125 46.2695V55H33.2578V46.2695H34.3125ZM38.7422 55H36.0469V46.2695H38.8594C39.707 46.2695 40.4336 46.4434 41.0391 46.791C41.6484 47.1387 42.1152 47.6387 42.4395 48.291C42.7637 48.9395 42.9258 49.7148 42.9258 50.6172C42.9258 51.5273 42.7617 52.3105 42.4336 52.9668C42.1055 53.6191 41.6289 54.1211 41.0039 54.4727C40.3828 54.8242 39.6289 55 38.7422 55ZM37.1016 54.0625H38.6719C39.7578 54.0625 40.5625 53.7559 41.0859 53.1426C41.6094 52.5254 41.8711 51.6836 41.8711 50.6172C41.8711 49.5625 41.6133 48.7305 41.0977 48.1211C40.5859 47.5117 39.8164 47.207 38.7891 47.207H37.1016V54.0625ZM43.2188 47.207V46.2695H49.957V47.207H47.1211V55H46.0664V47.207H43.2188ZM51.1172 55V46.2695H52.1719V50.0605H56.8242V46.2695H57.8789V55H56.8242V50.998H52.1719V55H51.1172Z" fill="black"/>
<path d="M124.475 55.1172C123.916 55.1172 123.414 55.002 122.969 54.7715C122.523 54.5371 122.168 54.2207 121.902 53.8223C121.637 53.4238 121.492 52.9727 121.469 52.4688H122.523C122.57 52.9648 122.773 53.375 123.133 53.6992C123.496 54.0195 123.943 54.1797 124.475 54.1797C124.854 54.1797 125.184 54.0918 125.465 53.916C125.75 53.7402 125.973 53.5 126.133 53.1953C126.293 52.8867 126.373 52.5352 126.373 52.1406C126.373 51.7461 126.297 51.3965 126.145 51.0918C125.992 50.7871 125.779 50.5488 125.506 50.377C125.232 50.2012 124.914 50.1133 124.551 50.1133C124.07 50.1133 123.658 50.2109 123.314 50.4062C122.971 50.5977 122.73 50.8789 122.594 51.25H121.58L121.873 46.2695H126.912V47.207H122.828L122.617 50.0371H122.629C123.172 49.4551 123.855 49.1641 124.68 49.1641C125.215 49.1641 125.686 49.291 126.092 49.5449C126.502 49.7988 126.82 50.1484 127.047 50.5938C127.277 51.0391 127.393 51.5508 127.393 52.1289C127.393 52.7148 127.27 53.2324 127.023 53.6816C126.781 54.1309 126.441 54.4824 126.004 54.7363C125.566 54.9902 125.057 55.1172 124.475 55.1172ZM128.23 52.8906V52.0234L132.408 46.2695H133.697V51.9531H135.033V52.8906H133.697V55H132.689V52.8906H128.23ZM132.689 51.9531V47.4531H132.678L129.426 51.9414V51.9531H132.689ZM141.637 55.1406C141.066 55.1406 140.564 55.0039 140.131 54.7305C139.701 54.4531 139.365 54.0723 139.123 53.5879C138.885 53.1035 138.766 52.5469 138.766 51.918C138.766 51.2852 138.885 50.7246 139.123 50.2363C139.365 49.748 139.701 49.3652 140.131 49.0879C140.564 48.8105 141.066 48.6719 141.637 48.6719C142.105 48.6719 142.525 48.7656 142.896 48.9531C143.268 49.1367 143.57 49.3906 143.805 49.7148C144.043 50.0391 144.189 50.4102 144.244 50.8281H143.236C143.162 50.4648 142.99 50.166 142.721 49.9316C142.455 49.6934 142.094 49.5742 141.637 49.5742C141.055 49.5742 140.598 49.7871 140.266 50.2129C139.938 50.6387 139.773 51.207 139.773 51.918C139.773 52.6211 139.938 53.1836 140.266 53.6055C140.594 54.0273 141.051 54.2383 141.637 54.2383C142.102 54.2383 142.457 54.125 142.703 53.8984C142.949 53.668 143.121 53.3633 143.219 52.9844H144.244C144.189 53.3906 144.043 53.7578 143.805 54.0859C143.57 54.4102 143.266 54.668 142.891 54.8594C142.52 55.0469 142.102 55.1406 141.637 55.1406ZM145.363 55V48.8125H146.336V49.8145C146.531 49.4512 146.791 49.1738 147.115 48.9824C147.439 48.791 147.791 48.6953 148.17 48.6953C148.592 48.6953 148.961 48.8027 149.277 49.0176C149.594 49.2324 149.816 49.4961 149.945 49.8086C150.113 49.4922 150.365 49.2285 150.701 49.0176C151.037 48.8027 151.436 48.6953 151.896 48.6953C152.275 48.6953 152.619 48.7773 152.928 48.9414C153.24 49.1055 153.488 49.3535 153.672 49.6855C153.859 50.0176 153.953 50.4375 153.953 50.9453V55H152.957V50.9453C152.957 50.4648 152.822 50.123 152.553 49.9199C152.283 49.7129 151.971 49.6094 151.615 49.6094C151.162 49.6094 150.805 49.748 150.543 50.0254C150.285 50.2988 150.156 50.6445 150.156 51.0625V55H149.16V50.8398C149.16 50.4688 149.035 50.1719 148.785 49.9492C148.539 49.7227 148.229 49.6094 147.854 49.6094C147.596 49.6094 147.352 49.6699 147.121 49.791C146.895 49.9121 146.711 50.0938 146.57 50.3359C146.43 50.5742 146.359 50.8711 146.359 51.2266V55H145.363Z" fill="black"/>
<path d="M121.896 96L125.834 88.2129V88.207H121.293V87.2695H126.895V88.2656L123.004 96H121.896ZM130.68 96.1406C130.035 96.1406 129.477 95.957 129.004 95.5898C128.535 95.2188 128.172 94.6973 127.914 94.0254C127.656 93.3535 127.527 92.5586 127.527 91.6406C127.527 90.7188 127.656 89.9219 127.914 89.25C128.172 88.5742 128.535 88.0527 129.004 87.6855C129.477 87.3145 130.035 87.1289 130.68 87.1289C131.324 87.1289 131.883 87.3145 132.355 87.6855C132.828 88.0527 133.191 88.5742 133.445 89.25C133.703 89.9219 133.832 90.7188 133.832 91.6406C133.832 92.5586 133.703 93.3535 133.445 94.0254C133.191 94.6973 132.828 95.2188 132.355 95.5898C131.883 95.957 131.324 96.1406 130.68 96.1406ZM130.68 95.2031C131.348 95.2031 131.873 94.8867 132.256 94.2539C132.643 93.6172 132.836 92.7461 132.836 91.6406C132.836 90.5273 132.643 89.6543 132.256 89.0215C131.873 88.3848 131.348 88.0664 130.68 88.0664C130.012 88.0664 129.484 88.3848 129.098 89.0215C128.715 89.6543 128.523 90.5273 128.523 91.6406C128.523 92.7461 128.715 93.6172 129.098 94.2539C129.484 94.8867 130.012 95.2031 130.68 95.2031ZM140.652 96.1406C140.082 96.1406 139.58 96.0039 139.146 95.7305C138.717 95.4531 138.381 95.0723 138.139 94.5879C137.9 94.1035 137.781 93.5469 137.781 92.918C137.781 92.2852 137.9 91.7246 138.139 91.2363C138.381 90.748 138.717 90.3652 139.146 90.0879C139.58 89.8105 140.082 89.6719 140.652 89.6719C141.121 89.6719 141.541 89.7656 141.912 89.9531C142.283 90.1367 142.586 90.3906 142.82 90.7148C143.059 91.0391 143.205 91.4102 143.26 91.8281H142.252C142.178 91.4648 142.006 91.166 141.736 90.9316C141.471 90.6934 141.109 90.5742 140.652 90.5742C140.07 90.5742 139.613 90.7871 139.281 91.2129C138.953 91.6387 138.789 92.207 138.789 92.918C138.789 93.6211 138.953 94.1836 139.281 94.6055C139.609 95.0273 140.066 95.2383 140.652 95.2383C141.117 95.2383 141.473 95.125 141.719 94.8984C141.965 94.668 142.137 94.3633 142.234 93.9844H143.26C143.205 94.3906 143.059 94.7578 142.82 95.0859C142.586 95.4102 142.281 95.668 141.906 95.8594C141.535 96.0469 141.117 96.1406 140.652 96.1406ZM144.379 96V89.8125H145.352V90.8145C145.547 90.4512 145.807 90.1738 146.131 89.9824C146.455 89.791 146.807 89.6953 147.186 89.6953C147.607 89.6953 147.977 89.8027 148.293 90.0176C148.609 90.2324 148.832 90.4961 148.961 90.8086C149.129 90.4922 149.381 90.2285 149.717 90.0176C150.053 89.8027 150.451 89.6953 150.912 89.6953C151.291 89.6953 151.635 89.7773 151.943 89.9414C152.256 90.1055 152.504 90.3535 152.688 90.6855C152.875 91.0176 152.969 91.4375 152.969 91.9453V96H151.973V91.9453C151.973 91.4648 151.838 91.123 151.568 90.9199C151.299 90.7129 150.986 90.6094 150.631 90.6094C150.178 90.6094 149.82 90.748 149.559 91.0254C149.301 91.2988 149.172 91.6445 149.172 92.0625V96H148.176V91.8398C148.176 91.4688 148.051 91.1719 147.801 90.9492C147.555 90.7227 147.244 90.6094 146.869 90.6094C146.611 90.6094 146.367 90.6699 146.137 90.791C145.91 90.9121 145.727 91.0938 145.586 91.3359C145.445 91.5742 145.375 91.8711 145.375 92.2266V96H144.379Z" fill="black"/>
<path d="M121.498 137V136.115L124.604 133.279C124.975 132.939 125.275 132.641 125.506 132.383C125.74 132.125 125.912 131.873 126.021 131.627C126.131 131.381 126.186 131.109 126.186 130.812C126.186 130.273 126.025 129.848 125.705 129.535C125.389 129.223 124.953 129.066 124.398 129.066C123.801 129.066 123.338 129.25 123.01 129.617C122.682 129.98 122.518 130.473 122.518 131.094H121.533C121.533 130.512 121.65 129.998 121.885 129.553C122.123 129.107 122.457 128.76 122.887 128.51C123.316 128.256 123.818 128.129 124.393 128.129C124.939 128.129 125.422 128.242 125.84 128.469C126.258 128.691 126.586 129.002 126.824 129.4C127.062 129.795 127.182 130.252 127.182 130.771C127.182 131.334 127.025 131.852 126.713 132.324C126.404 132.797 125.93 133.324 125.289 133.906L122.928 136.051V136.062H127.234V137H121.498ZM131.418 137.141C130.773 137.141 130.215 136.957 129.742 136.59C129.273 136.219 128.91 135.697 128.652 135.025C128.395 134.354 128.266 133.559 128.266 132.641C128.266 131.719 128.395 130.922 128.652 130.25C128.91 129.574 129.273 129.053 129.742 128.686C130.215 128.314 130.773 128.129 131.418 128.129C132.062 128.129 132.621 128.314 133.094 128.686C133.566 129.053 133.93 129.574 134.184 130.25C134.441 130.922 134.57 131.719 134.57 132.641C134.57 133.559 134.441 134.354 134.184 135.025C133.93 135.697 133.566 136.219 133.094 136.59C132.621 136.957 132.062 137.141 131.418 137.141ZM131.418 136.203C132.086 136.203 132.611 135.887 132.994 135.254C133.381 134.617 133.574 133.746 133.574 132.641C133.574 131.527 133.381 130.654 132.994 130.021C132.611 129.385 132.086 129.066 131.418 129.066C130.75 129.066 130.223 129.385 129.836 130.021C129.453 130.654 129.262 131.527 129.262 132.641C129.262 133.746 129.453 134.617 129.836 135.254C130.223 135.887 130.75 136.203 131.418 136.203ZM141.391 137.141C140.82 137.141 140.318 137.004 139.885 136.73C139.455 136.453 139.119 136.072 138.877 135.588C138.639 135.104 138.52 134.547 138.52 133.918C138.52 133.285 138.639 132.725 138.877 132.236C139.119 131.748 139.455 131.365 139.885 131.088C140.318 130.811 140.82 130.672 141.391 130.672C141.859 130.672 142.279 130.766 142.65 130.953C143.021 131.137 143.324 131.391 143.559 131.715C143.797 132.039 143.943 132.41 143.998 132.828H142.99C142.916 132.465 142.744 132.166 142.475 131.932C142.209 131.693 141.848 131.574 141.391 131.574C140.809 131.574 140.352 131.787 140.02 132.213C139.691 132.639 139.527 133.207 139.527 133.918C139.527 134.621 139.691 135.184 140.02 135.605C140.348 136.027 140.805 136.238 141.391 136.238C141.855 136.238 142.211 136.125 142.457 135.898C142.703 135.668 142.875 135.363 142.973 134.984H143.998C143.943 135.391 143.797 135.758 143.559 136.086C143.324 136.41 143.02 136.668 142.645 136.859C142.273 137.047 141.855 137.141 141.391 137.141ZM145.117 137V130.812H146.09V131.814C146.285 131.451 146.545 131.174 146.869 130.982C147.193 130.791 147.545 130.695 147.924 130.695C148.346 130.695 148.715 130.803 149.031 131.018C149.348 131.232 149.57 131.496 149.699 131.809C149.867 131.492 150.119 131.229 150.455 131.018C150.791 130.803 151.189 130.695 151.65 130.695C152.029 130.695 152.373 130.777 152.682 130.941C152.994 131.105 153.242 131.354 153.426 131.686C153.613 132.018 153.707 132.438 153.707 132.945V137H152.711V132.945C152.711 132.465 152.576 132.123 152.307 131.92C152.037 131.713 151.725 131.609 151.369 131.609C150.916 131.609 150.559 131.748 150.297 132.025C150.039 132.299 149.91 132.645 149.91 133.062V137H148.914V132.84C148.914 132.469 148.789 132.172 148.539 131.949C148.293 131.723 147.982 131.609 147.607 131.609C147.35 131.609 147.105 131.67 146.875 131.791C146.648 131.912 146.465 132.094 146.324 132.336C146.184 132.574 146.113 132.871 146.113 133.227V137H145.117Z" fill="black"/>
<path d="M245.498 137V136.115L248.604 133.279C248.975 132.939 249.275 132.641 249.506 132.383C249.74 132.125 249.912 131.873 250.021 131.627C250.131 131.381 250.186 131.109 250.186 130.812C250.186 130.273 250.025 129.848 249.705 129.535C249.389 129.223 248.953 129.066 248.398 129.066C247.801 129.066 247.338 129.25 247.01 129.617C246.682 129.98 246.518 130.473 246.518 131.094H245.533C245.533 130.512 245.65 129.998 245.885 129.553C246.123 129.107 246.457 128.76 246.887 128.51C247.316 128.256 247.818 128.129 248.393 128.129C248.939 128.129 249.422 128.242 249.84 128.469C250.258 128.691 250.586 129.002 250.824 129.4C251.062 129.795 251.182 130.252 251.182 130.771C251.182 131.334 251.025 131.852 250.713 132.324C250.404 132.797 249.93 133.324 249.289 133.906L246.928 136.051V136.062H251.234V137H245.498ZM255.219 128.27V137H254.199V129.359H254.193L252.02 130.801V129.723L254.199 128.27H255.219ZM262.379 137.141C261.809 137.141 261.307 137.004 260.873 136.73C260.443 136.453 260.107 136.072 259.865 135.588C259.627 135.104 259.508 134.547 259.508 133.918C259.508 133.285 259.627 132.725 259.865 132.236C260.107 131.748 260.443 131.365 260.873 131.088C261.307 130.811 261.809 130.672 262.379 130.672C262.848 130.672 263.268 130.766 263.639 130.953C264.01 131.137 264.312 131.391 264.547 131.715C264.785 132.039 264.932 132.41 264.986 132.828H263.979C263.904 132.465 263.732 132.166 263.463 131.932C263.197 131.693 262.836 131.574 262.379 131.574C261.797 131.574 261.34 131.787 261.008 132.213C260.68 132.639 260.516 133.207 260.516 133.918C260.516 134.621 260.68 135.184 261.008 135.605C261.336 136.027 261.793 136.238 262.379 136.238C262.844 136.238 263.199 136.125 263.445 135.898C263.691 135.668 263.863 135.363 263.961 134.984H264.986C264.932 135.391 264.785 135.758 264.547 136.086C264.312 136.41 264.008 136.668 263.633 136.859C263.262 137.047 262.844 137.141 262.379 137.141ZM266.105 137V130.812H267.078V131.814C267.273 131.451 267.533 131.174 267.857 130.982C268.182 130.791 268.533 130.695 268.912 130.695C269.334 130.695 269.703 130.803 270.02 131.018C270.336 131.232 270.559 131.496 270.688 131.809C270.855 131.492 271.107 131.229 271.443 131.018C271.779 130.803 272.178 130.695 272.639 130.695C273.018 130.695 273.361 130.777 273.67 130.941C273.982 131.105 274.23 131.354 274.414 131.686C274.602 132.018 274.695 132.438 274.695 132.945V137H273.699V132.945C273.699 132.465 273.564 132.123 273.295 131.92C273.025 131.713 272.713 131.609 272.357 131.609C271.904 131.609 271.547 131.748 271.285 132.025C271.027 132.299 270.898 132.645 270.898 133.062V137H269.902V132.84C269.902 132.469 269.777 132.172 269.527 131.949C269.281 131.723 268.971 131.609 268.596 131.609C268.338 131.609 268.094 131.67 267.863 131.791C267.637 131.912 267.453 132.094 267.312 132.336C267.172 132.574 267.102 132.871 267.102 133.227V137H266.105Z" fill="black"/>
<path d="M363.498 137V136.115L366.604 133.279C366.975 132.939 367.275 132.641 367.506 132.383C367.74 132.125 367.912 131.873 368.021 131.627C368.131 131.381 368.186 131.109 368.186 130.812C368.186 130.273 368.025 129.848 367.705 129.535C367.389 129.223 366.953 129.066 366.398 129.066C365.801 129.066 365.338 129.25 365.01 129.617C364.682 129.98 364.518 130.473 364.518 131.094H363.533C363.533 130.512 363.65 129.998 363.885 129.553C364.123 129.107 364.457 128.76 364.887 128.51C365.316 128.256 365.818 128.129 366.393 128.129C366.939 128.129 367.422 128.242 367.84 128.469C368.258 128.691 368.586 129.002 368.824 129.4C369.062 129.795 369.182 130.252 369.182 130.771C369.182 131.334 369.025 131.852 368.713 132.324C368.404 132.797 367.93 133.324 367.289 133.906L364.928 136.051V136.062H369.234V137H363.498ZM370.236 137V136.115L373.342 133.279C373.713 132.939 374.014 132.641 374.244 132.383C374.479 132.125 374.65 131.873 374.76 131.627C374.869 131.381 374.924 131.109 374.924 130.812C374.924 130.273 374.764 129.848 374.443 129.535C374.127 129.223 373.691 129.066 373.137 129.066C372.539 129.066 372.076 129.25 371.748 129.617C371.42 129.98 371.256 130.473 371.256 131.094H370.271C370.271 130.512 370.389 129.998 370.623 129.553C370.861 129.107 371.195 128.76 371.625 128.51C372.055 128.256 372.557 128.129 373.131 128.129C373.678 128.129 374.16 128.242 374.578 128.469C374.996 128.691 375.324 129.002 375.562 129.4C375.801 129.795 375.92 130.252 375.92 130.771C375.92 131.334 375.764 131.852 375.451 132.324C375.143 132.797 374.668 133.324 374.027 133.906L371.666 136.051V136.062H375.973V137H370.236ZM382.77 137.141C382.199 137.141 381.697 137.004 381.264 136.73C380.834 136.453 380.498 136.072 380.256 135.588C380.018 135.104 379.898 134.547 379.898 133.918C379.898 133.285 380.018 132.725 380.256 132.236C380.498 131.748 380.834 131.365 381.264 131.088C381.697 130.811 382.199 130.672 382.77 130.672C383.238 130.672 383.658 130.766 384.029 130.953C384.4 131.137 384.703 131.391 384.938 131.715C385.176 132.039 385.322 132.41 385.377 132.828H384.369C384.295 132.465 384.123 132.166 383.854 131.932C383.588 131.693 383.227 131.574 382.77 131.574C382.188 131.574 381.73 131.787 381.398 132.213C381.07 132.639 380.906 133.207 380.906 133.918C380.906 134.621 381.07 135.184 381.398 135.605C381.727 136.027 382.184 136.238 382.77 136.238C383.234 136.238 383.59 136.125 383.836 135.898C384.082 135.668 384.254 135.363 384.352 134.984H385.377C385.322 135.391 385.176 135.758 384.938 136.086C384.703 136.41 384.398 136.668 384.023 136.859C383.652 137.047 383.234 137.141 382.77 137.141ZM386.496 137V130.812H387.469V131.814C387.664 131.451 387.924 131.174 388.248 130.982C388.572 130.791 388.924 130.695 389.303 130.695C389.725 130.695 390.094 130.803 390.41 131.018C390.727 131.232 390.949 131.496 391.078 131.809C391.246 131.492 391.498 131.229 391.834 131.018C392.17 130.803 392.568 130.695 393.029 130.695C393.408 130.695 393.752 130.777 394.061 130.941C394.373 131.105 394.621 131.354 394.805 131.686C394.992 132.018 395.086 132.438 395.086 132.945V137H394.09V132.945C394.09 132.465 393.955 132.123 393.686 131.92C393.416 131.713 393.104 131.609 392.748 131.609C392.295 131.609 391.938 131.748 391.676 132.025C391.418 132.299 391.289 132.645 391.289 133.062V137H390.293V132.84C390.293 132.469 390.168 132.172 389.918 131.949C389.672 131.723 389.361 131.609 388.986 131.609C388.729 131.609 388.484 131.67 388.254 131.791C388.027 131.912 387.844 132.094 387.703 132.336C387.562 132.574 387.492 132.871 387.492 133.227V137H386.496Z" fill="black"/>
<path d="M245.896 96L249.834 88.2129V88.207H245.293V87.2695H250.895V88.2656L247.004 96H245.896ZM251.686 96V95.1152L254.791 92.2793C255.162 91.9395 255.463 91.6406 255.693 91.3828C255.928 91.125 256.1 90.873 256.209 90.627C256.318 90.3809 256.373 90.1094 256.373 89.8125C256.373 89.2734 256.213 88.8477 255.893 88.5352C255.576 88.2227 255.141 88.0664 254.586 88.0664C253.988 88.0664 253.525 88.25 253.197 88.6172C252.869 88.9805 252.705 89.4727 252.705 90.0938H251.721C251.721 89.5117 251.838 88.998 252.072 88.5527C252.311 88.1074 252.645 87.7598 253.074 87.5098C253.504 87.2559 254.006 87.1289 254.58 87.1289C255.127 87.1289 255.609 87.2422 256.027 87.4688C256.445 87.6914 256.773 88.002 257.012 88.4004C257.25 88.7949 257.369 89.252 257.369 89.7715C257.369 90.334 257.213 90.8516 256.9 91.3242C256.592 91.7969 256.117 92.3242 255.477 92.9062L253.115 95.0508V95.0625H257.422V96H251.686ZM264.219 96.1406C263.648 96.1406 263.146 96.0039 262.713 95.7305C262.283 95.4531 261.947 95.0723 261.705 94.5879C261.467 94.1035 261.348 93.5469 261.348 92.918C261.348 92.2852 261.467 91.7246 261.705 91.2363C261.947 90.748 262.283 90.3652 262.713 90.0879C263.146 89.8105 263.648 89.6719 264.219 89.6719C264.688 89.6719 265.107 89.7656 265.479 89.9531C265.85 90.1367 266.152 90.3906 266.387 90.7148C266.625 91.0391 266.771 91.4102 266.826 91.8281H265.818C265.744 91.4648 265.572 91.166 265.303 90.9316C265.037 90.6934 264.676 90.5742 264.219 90.5742C263.637 90.5742 263.18 90.7871 262.848 91.2129C262.52 91.6387 262.355 92.207 262.355 92.918C262.355 93.6211 262.52 94.1836 262.848 94.6055C263.176 95.0273 263.633 95.2383 264.219 95.2383C264.684 95.2383 265.039 95.125 265.285 94.8984C265.531 94.668 265.703 94.3633 265.801 93.9844H266.826C266.771 94.3906 266.625 94.7578 266.387 95.0859C266.152 95.4102 265.848 95.668 265.473 95.8594C265.102 96.0469 264.684 96.1406 264.219 96.1406ZM267.945 96V89.8125H268.918V90.8145C269.113 90.4512 269.373 90.1738 269.697 89.9824C270.021 89.791 270.373 89.6953 270.752 89.6953C271.174 89.6953 271.543 89.8027 271.859 90.0176C272.176 90.2324 272.398 90.4961 272.527 90.8086C272.695 90.4922 272.947 90.2285 273.283 90.0176C273.619 89.8027 274.018 89.6953 274.479 89.6953C274.857 89.6953 275.201 89.7773 275.51 89.9414C275.822 90.1055 276.07 90.3535 276.254 90.6855C276.441 91.0176 276.535 91.4375 276.535 91.9453V96H275.539V91.9453C275.539 91.4648 275.404 91.123 275.135 90.9199C274.865 90.7129 274.553 90.6094 274.197 90.6094C273.744 90.6094 273.387 90.748 273.125 91.0254C272.867 91.2988 272.738 91.6445 272.738 92.0625V96H271.742V91.8398C271.742 91.4688 271.617 91.1719 271.367 90.9492C271.121 90.7227 270.811 90.6094 270.436 90.6094C270.178 90.6094 269.934 90.6699 269.703 90.791C269.477 90.9121 269.293 91.0938 269.152 91.3359C269.012 91.5742 268.941 91.8711 268.941 92.2266V96H267.945Z" fill="black"/>
<path d="M363.896 96L367.834 88.2129V88.207H363.293V87.2695H368.895V88.2656L365.004 96H363.896ZM368.789 93.8906V93.0234L372.967 87.2695H374.256V92.9531H375.592V93.8906H374.256V96H373.248V93.8906H368.789ZM373.248 92.9531V88.4531H373.236L369.984 92.9414V92.9531H373.248ZM382.195 96.1406C381.625 96.1406 381.123 96.0039 380.689 95.7305C380.26 95.4531 379.924 95.0723 379.682 94.5879C379.443 94.1035 379.324 93.5469 379.324 92.918C379.324 92.2852 379.443 91.7246 379.682 91.2363C379.924 90.748 380.26 90.3652 380.689 90.0879C381.123 89.8105 381.625 89.6719 382.195 89.6719C382.664 89.6719 383.084 89.7656 383.455 89.9531C383.826 90.1367 384.129 90.3906 384.363 90.7148C384.602 91.0391 384.748 91.4102 384.803 91.8281H383.795C383.721 91.4648 383.549 91.166 383.279 90.9316C383.014 90.6934 382.652 90.5742 382.195 90.5742C381.613 90.5742 381.156 90.7871 380.824 91.2129C380.496 91.6387 380.332 92.207 380.332 92.918C380.332 93.6211 380.496 94.1836 380.824 94.6055C381.152 95.0273 381.609 95.2383 382.195 95.2383C382.66 95.2383 383.016 95.125 383.262 94.8984C383.508 94.668 383.68 94.3633 383.777 93.9844H384.803C384.748 94.3906 384.602 94.7578 384.363 95.0859C384.129 95.4102 383.824 95.668 383.449 95.8594C383.078 96.0469 382.66 96.1406 382.195 96.1406ZM385.922 96V89.8125H386.895V90.8145C387.09 90.4512 387.35 90.1738 387.674 89.9824C387.998 89.791 388.35 89.6953 388.729 89.6953C389.15 89.6953 389.52 89.8027 389.836 90.0176C390.152 90.2324 390.375 90.4961 390.504 90.8086C390.672 90.4922 390.924 90.2285 391.26 90.0176C391.596 89.8027 391.994 89.6953 392.455 89.6953C392.834 89.6953 393.178 89.7773 393.486 89.9414C393.799 90.1055 394.047 90.3535 394.23 90.6855C394.418 91.0176 394.512 91.4375 394.512 91.9453V96H393.516V91.9453C393.516 91.4648 393.381 91.123 393.111 90.9199C392.842 90.7129 392.529 90.6094 392.174 90.6094C391.721 90.6094 391.363 90.748 391.102 91.0254C390.844 91.2988 390.715 91.6445 390.715 92.0625V96H389.719V91.8398C389.719 91.4688 389.594 91.1719 389.344 90.9492C389.098 90.7227 388.787 90.6094 388.412 90.6094C388.154 90.6094 387.91 90.6699 387.68 90.791C387.453 90.9121 387.27 91.0938 387.129 91.3359C386.988 91.5742 386.918 91.8711 386.918 92.2266V96H385.922Z" fill="black"/>
<path d="M248.475 55.1172C247.916 55.1172 247.414 55.002 246.969 54.7715C246.523 54.5371 246.168 54.2207 245.902 53.8223C245.637 53.4238 245.492 52.9727 245.469 52.4688H246.523C246.57 52.9648 246.773 53.375 247.133 53.6992C247.496 54.0195 247.943 54.1797 248.475 54.1797C248.854 54.1797 249.184 54.0918 249.465 53.916C249.75 53.7402 249.973 53.5 250.133 53.1953C250.293 52.8867 250.373 52.5352 250.373 52.1406C250.373 51.7461 250.297 51.3965 250.145 51.0918C249.992 50.7871 249.779 50.5488 249.506 50.377C249.232 50.2012 248.914 50.1133 248.551 50.1133C248.07 50.1133 247.658 50.2109 247.314 50.4062C246.971 50.5977 246.73 50.8789 246.594 51.25H245.58L245.873 46.2695H250.912V47.207H246.828L246.617 50.0371H246.629C247.172 49.4551 247.855 49.1641 248.68 49.1641C249.215 49.1641 249.686 49.291 250.092 49.5449C250.502 49.7988 250.82 50.1484 251.047 50.5938C251.277 51.0391 251.393 51.5508 251.393 52.1289C251.393 52.7148 251.27 53.2324 251.023 53.6816C250.781 54.1309 250.441 54.4824 250.004 54.7363C249.566 54.9902 249.057 55.1172 248.475 55.1172ZM255.488 55.1406C254.523 55.1406 253.775 54.7812 253.244 54.0625C252.717 53.3398 252.453 52.3203 252.453 51.0039C252.453 50.0234 252.564 49.168 252.787 48.4375C253.014 47.707 253.361 47.1406 253.83 46.7383C254.299 46.332 254.898 46.1289 255.629 46.1289C256.387 46.1289 257.006 46.3418 257.486 46.7676C257.971 47.1934 258.254 47.7539 258.336 48.4492H257.305C257.223 48.0273 257.043 47.6914 256.766 47.4414C256.492 47.1914 256.135 47.0664 255.693 47.0664C255.189 47.0664 254.771 47.2109 254.439 47.5C254.111 47.7891 253.865 48.1875 253.701 48.6953C253.541 49.1992 253.461 49.7773 253.461 50.4297H253.473C253.672 50.0938 253.969 49.8242 254.363 49.6211C254.762 49.418 255.195 49.3164 255.664 49.3164C256.191 49.3164 256.66 49.4434 257.07 49.6973C257.484 49.9473 257.811 50.291 258.049 50.7285C258.287 51.1621 258.406 51.6562 258.406 52.2109C258.406 52.7852 258.281 53.293 258.031 53.7344C257.785 54.1758 257.443 54.5215 257.006 54.7715C256.568 55.0176 256.062 55.1406 255.488 55.1406ZM255.488 54.2031C255.84 54.2031 256.158 54.1152 256.443 53.9395C256.732 53.7598 256.961 53.5195 257.129 53.2188C257.301 52.9141 257.387 52.5781 257.387 52.2109C257.387 51.8438 257.305 51.5137 257.141 51.2207C256.977 50.9238 256.754 50.6895 256.473 50.5176C256.191 50.3418 255.875 50.2539 255.523 50.2539C255.172 50.2539 254.85 50.3418 254.557 50.5176C254.268 50.6934 254.035 50.9316 253.859 51.2324C253.688 51.5293 253.602 51.8594 253.602 52.2227C253.602 52.5859 253.686 52.918 253.854 53.2188C254.025 53.5195 254.254 53.7598 254.539 53.9395C254.824 54.1152 255.141 54.2031 255.488 54.2031ZM265.227 55.1406C264.656 55.1406 264.154 55.0039 263.721 54.7305C263.291 54.4531 262.955 54.0723 262.713 53.5879C262.475 53.1035 262.355 52.5469 262.355 51.918C262.355 51.2852 262.475 50.7246 262.713 50.2363C262.955 49.748 263.291 49.3652 263.721 49.0879C264.154 48.8105 264.656 48.6719 265.227 48.6719C265.695 48.6719 266.115 48.7656 266.486 48.9531C266.857 49.1367 267.16 49.3906 267.395 49.7148C267.633 50.0391 267.779 50.4102 267.834 50.8281H266.826C266.752 50.4648 266.58 50.166 266.311 49.9316C266.045 49.6934 265.684 49.5742 265.227 49.5742C264.645 49.5742 264.188 49.7871 263.855 50.2129C263.527 50.6387 263.363 51.207 263.363 51.918C263.363 52.6211 263.527 53.1836 263.855 53.6055C264.184 54.0273 264.641 54.2383 265.227 54.2383C265.691 54.2383 266.047 54.125 266.293 53.8984C266.539 53.668 266.711 53.3633 266.809 52.9844H267.834C267.779 53.3906 267.633 53.7578 267.395 54.0859C267.16 54.4102 266.855 54.668 266.48 54.8594C266.109 55.0469 265.691 55.1406 265.227 55.1406ZM268.953 55V48.8125H269.926V49.8145C270.121 49.4512 270.381 49.1738 270.705 48.9824C271.029 48.791 271.381 48.6953 271.76 48.6953C272.182 48.6953 272.551 48.8027 272.867 49.0176C273.184 49.2324 273.406 49.4961 273.535 49.8086C273.703 49.4922 273.955 49.2285 274.291 49.0176C274.627 48.8027 275.025 48.6953 275.486 48.6953C275.865 48.6953 276.209 48.7773 276.518 48.9414C276.83 49.1055 277.078 49.3535 277.262 49.6855C277.449 50.0176 277.543 50.4375 277.543 50.9453V55H276.547V50.9453C276.547 50.4648 276.412 50.123 276.143 49.9199C275.873 49.7129 275.561 49.6094 275.205 49.6094C274.752 49.6094 274.395 49.748 274.133 50.0254C273.875 50.2988 273.746 50.6445 273.746 51.0625V55H272.75V50.8398C272.75 50.4688 272.625 50.1719 272.375 49.9492C272.129 49.7227 271.818 49.6094 271.443 49.6094C271.186 49.6094 270.941 49.6699 270.711 49.791C270.484 49.9121 270.301 50.0938 270.16 50.3359C270.02 50.5742 269.949 50.8711 269.949 51.2266V55H268.953Z" fill="black"/>
<path d="M366.475 55.1172C365.916 55.1172 365.414 55.002 364.969 54.7715C364.523 54.5371 364.168 54.2207 363.902 53.8223C363.637 53.4238 363.492 52.9727 363.469 52.4688H364.523C364.57 52.9648 364.773 53.375 365.133 53.6992C365.496 54.0195 365.943 54.1797 366.475 54.1797C366.854 54.1797 367.184 54.0918 367.465 53.916C367.75 53.7402 367.973 53.5 368.133 53.1953C368.293 52.8867 368.373 52.5352 368.373 52.1406C368.373 51.7461 368.297 51.3965 368.145 51.0918C367.992 50.7871 367.779 50.5488 367.506 50.377C367.232 50.2012 366.914 50.1133 366.551 50.1133C366.07 50.1133 365.658 50.2109 365.314 50.4062C364.971 50.5977 364.73 50.8789 364.594 51.25H363.58L363.873 46.2695H368.912V47.207H364.828L364.617 50.0371H364.629C365.172 49.4551 365.855 49.1641 366.68 49.1641C367.215 49.1641 367.686 49.291 368.092 49.5449C368.502 49.7988 368.82 50.1484 369.047 50.5938C369.277 51.0391 369.393 51.5508 369.393 52.1289C369.393 52.7148 369.27 53.2324 369.023 53.6816C368.781 54.1309 368.441 54.4824 368.004 54.7363C367.566 54.9902 367.057 55.1172 366.475 55.1172ZM373.418 55.1406C372.84 55.1406 372.328 55.0352 371.883 54.8242C371.438 54.6133 371.088 54.3223 370.834 53.9512C370.58 53.5801 370.453 53.1562 370.453 52.6797C370.453 52.293 370.535 51.9395 370.699 51.6191C370.863 51.2949 371.084 51.0293 371.361 50.8223C371.643 50.6113 371.959 50.4824 372.311 50.4355C371.861 50.3496 371.492 50.1289 371.203 49.7734C370.914 49.418 370.77 48.9844 370.77 48.4727C370.77 48.0234 370.885 47.623 371.115 47.2715C371.346 46.916 371.66 46.6367 372.059 46.4336C372.457 46.2305 372.91 46.1289 373.418 46.1289C373.922 46.1289 374.373 46.2305 374.771 46.4336C375.17 46.6367 375.482 46.916 375.709 47.2715C375.939 47.623 376.055 48.0234 376.055 48.4727C376.055 48.9805 375.91 49.4141 375.621 49.7734C375.332 50.1289 374.967 50.3496 374.525 50.4355C374.873 50.4863 375.188 50.6172 375.469 50.8281C375.75 51.0352 375.973 51.3008 376.137 51.625C376.301 51.9453 376.383 52.2969 376.383 52.6797C376.383 53.1562 376.256 53.5801 376.002 53.9512C375.748 54.3223 375.398 54.6133 374.953 54.8242C374.508 55.0352 373.996 55.1406 373.418 55.1406ZM373.418 54.2031C374 54.2031 374.465 54.0605 374.812 53.7754C375.164 53.4902 375.34 53.1094 375.34 52.6328C375.34 52.3047 375.258 52.0137 375.094 51.7598C374.93 51.5059 374.703 51.3066 374.414 51.1621C374.125 51.0176 373.793 50.9453 373.418 50.9453C373.043 50.9453 372.709 51.0176 372.416 51.1621C372.127 51.3066 371.898 51.5059 371.73 51.7598C371.566 52.0137 371.484 52.3047 371.484 52.6328C371.484 53.1055 371.66 53.4863 372.012 53.7754C372.363 54.0605 372.832 54.2031 373.418 54.2031ZM373.418 50.043C373.898 50.043 374.287 49.9062 374.584 49.6328C374.885 49.3555 375.035 48.9922 375.035 48.543C375.035 48.0977 374.887 47.7383 374.59 47.4648C374.293 47.1914 373.902 47.0547 373.418 47.0547C372.934 47.0547 372.541 47.1914 372.24 47.4648C371.939 47.7383 371.789 48.0977 371.789 48.543C371.789 48.9883 371.939 49.3496 372.24 49.627C372.541 49.9043 372.934 50.043 373.418 50.043ZM383.203 55.1406C382.633 55.1406 382.131 55.0039 381.697 54.7305C381.268 54.4531 380.932 54.0723 380.689 53.5879C380.451 53.1035 380.332 52.5469 380.332 51.918C380.332 51.2852 380.451 50.7246 380.689 50.2363C380.932 49.748 381.268 49.3652 381.697 49.0879C382.131 48.8105 382.633 48.6719 383.203 48.6719C383.672 48.6719 384.092 48.7656 384.463 48.9531C384.834 49.1367 385.137 49.3906 385.371 49.7148C385.609 50.0391 385.756 50.4102 385.811 50.8281H384.803C384.729 50.4648 384.557 50.166 384.287 49.9316C384.021 49.6934 383.66 49.5742 383.203 49.5742C382.621 49.5742 382.164 49.7871 381.832 50.2129C381.504 50.6387 381.34 51.207 381.34 51.918C381.34 52.6211 381.504 53.1836 381.832 53.6055C382.16 54.0273 382.617 54.2383 383.203 54.2383C383.668 54.2383 384.023 54.125 384.27 53.8984C384.516 53.668 384.688 53.3633 384.785 52.9844H385.811C385.756 53.3906 385.609 53.7578 385.371 54.0859C385.137 54.4102 384.832 54.668 384.457 54.8594C384.086 55.0469 383.668 55.1406 383.203 55.1406ZM386.93 55V48.8125H387.902V49.8145C388.098 49.4512 388.357 49.1738 388.682 48.9824C389.006 48.791 389.357 48.6953 389.736 48.6953C390.158 48.6953 390.527 48.8027 390.844 49.0176C391.16 49.2324 391.383 49.4961 391.512 49.8086C391.68 49.4922 391.932 49.2285 392.268 49.0176C392.604 48.8027 393.002 48.6953 393.463 48.6953C393.842 48.6953 394.186 48.7773 394.494 48.9414C394.807 49.1055 395.055 49.3535 395.238 49.6855C395.426 50.0176 395.52 50.4375 395.52 50.9453V55H394.523V50.9453C394.523 50.4648 394.389 50.123 394.119 49.9199C393.85 49.7129 393.537 49.6094 393.182 49.6094C392.729 49.6094 392.371 49.748 392.109 50.0254C391.852 50.2988 391.723 50.6445 391.723 51.0625V55H390.727V50.8398C390.727 50.4688 390.602 50.1719 390.352 49.9492C390.105 49.7227 389.795 49.6094 389.42 49.6094C389.162 49.6094 388.918 49.6699 388.688 49.791C388.461 49.9121 388.277 50.0938 388.137 50.3359C387.996 50.5742 387.926 50.8711 387.926 51.2266V55H386.93Z" fill="black"/>
<path d="M17.8672 96V87.2695H18.9219V95.0625H23.1289V96H17.8672ZM24.2891 96V87.2695H29.9668V88.207H25.3438V91.0605H29.627V91.998H25.3438V95.0625H29.9668V96H24.2891ZM31.25 96V87.2695H32.4629L36.0605 92.9531C36.1621 93.1172 36.3027 93.3496 36.4824 93.6504C36.6621 93.9512 36.8398 94.2559 37.0156 94.5645C37.0039 94.2598 36.9941 93.9434 36.9863 93.6152C36.9824 93.2871 36.9805 93.0508 36.9805 92.9062V87.2695H38.0352V96H36.8105L33.6113 90.9492C33.4902 90.7617 33.3105 90.4746 33.0723 90.0879C32.8379 89.6973 32.5645 89.2402 32.252 88.7168C32.2715 89.2598 32.2852 89.7188 32.293 90.0938C32.3008 90.4648 32.3047 90.7461 32.3047 90.9375V96H31.25ZM43.4199 96.1406C42.6465 96.1406 41.959 95.9492 41.3574 95.5664C40.7598 95.1797 40.2891 94.6484 39.9453 93.9727C39.6016 93.293 39.4297 92.5156 39.4297 91.6406C39.4297 90.7578 39.5996 89.9785 39.9395 89.3027C40.2832 88.623 40.7559 88.0918 41.3574 87.709C41.959 87.3223 42.6465 87.1289 43.4199 87.1289C44.0371 87.1289 44.6016 87.2559 45.1133 87.5098C45.625 87.7598 46.0508 88.1074 46.3906 88.5527C46.7305 88.998 46.9512 89.5117 47.0527 90.0938H45.9863C45.8965 89.7031 45.7305 89.3594 45.4883 89.0625C45.2461 88.7656 44.9473 88.5332 44.5918 88.3652C44.2402 88.1973 43.8496 88.1133 43.4199 88.1133C42.8379 88.1133 42.3262 88.2637 41.8848 88.5645C41.4434 88.8613 41.0996 89.2754 40.8535 89.8066C40.6074 90.334 40.4844 90.9453 40.4844 91.6406C40.4844 92.332 40.6074 92.9414 40.8535 93.4688C41.0996 93.9961 41.4434 94.4102 41.8848 94.7109C42.3262 95.0078 42.8379 95.1562 43.4199 95.1562C43.9043 95.1562 44.3457 95.0488 44.7441 94.834C45.1426 94.6152 45.4609 94.3125 45.6992 93.9258C45.9375 93.5352 46.0586 93.084 46.0625 92.5723H43.7773V91.6348H47.1055V92.5781C47.1055 93.2578 46.9414 93.8672 46.6133 94.4062C46.2891 94.9414 45.8496 95.3652 45.2949 95.6777C44.7402 95.9863 44.1152 96.1406 43.4199 96.1406ZM47.5977 88.207V87.2695H54.3359V88.207H51.5V96H50.4453V88.207H47.5977ZM55.4961 96V87.2695H56.5508V91.0605H61.2031V87.2695H62.2578V96H61.2031V91.998H56.5508V96H55.4961Z" fill="black"/>
<path d="M18.75 137.141C18.0781 137.141 17.4961 137.021 17.0039 136.783C16.5117 136.541 16.1309 136.199 15.8613 135.758C15.5918 135.316 15.457 134.793 15.457 134.188H16.5352C16.5352 134.812 16.7285 135.301 17.1152 135.652C17.5059 136.004 18.0508 136.18 18.75 136.18C19.3867 136.18 19.8965 136.041 20.2793 135.764C20.666 135.486 20.8594 135.113 20.8594 134.645C20.8594 134.281 20.7285 133.986 20.4668 133.76C20.2051 133.533 19.7598 133.342 19.1309 133.186L18.1523 132.945C17.2617 132.727 16.6191 132.434 16.2246 132.066C15.8301 131.699 15.6328 131.219 15.6328 130.625C15.6328 130.121 15.7559 129.684 16.002 129.312C16.252 128.938 16.6035 128.646 17.0566 128.439C17.5098 128.232 18.0391 128.129 18.6445 128.129C19.5547 128.129 20.2793 128.373 20.8184 128.861C21.3613 129.346 21.6445 130.008 21.668 130.848H20.625C20.5938 130.301 20.3984 129.873 20.0391 129.564C19.6797 129.252 19.2031 129.096 18.6094 129.096C18.043 129.096 17.5781 129.234 17.2148 129.512C16.8555 129.785 16.6758 130.139 16.6758 130.572C16.6758 130.912 16.8086 131.189 17.0742 131.404C17.3438 131.615 17.7949 131.801 18.4277 131.961L19.418 132.207C20.2695 132.418 20.8984 132.717 21.3047 133.104C21.7109 133.49 21.9141 133.988 21.9141 134.598C21.9141 135.102 21.7812 135.545 21.5156 135.928C21.2539 136.311 20.8848 136.609 20.4082 136.824C19.9355 137.035 19.3828 137.141 18.75 137.141ZM23.2383 137V128.27H24.293V136.062H28.5V137H23.2383ZM29.6602 137V128.27H35.3379V129.207H30.7148V132.061H34.998V132.998H30.7148V136.062H35.3379V137H29.6602ZM36.6211 137V128.27H42.2988V129.207H37.6758V132.061H41.959V132.998H37.6758V136.062H42.2988V137H36.6211ZM46.0547 137L42.832 128.27H43.9453L45.832 133.531C45.9219 133.789 46.0352 134.121 46.1719 134.527C46.3086 134.934 46.4746 135.436 46.6699 136.033C46.8613 135.436 47.0234 134.934 47.1562 134.527C47.293 134.121 47.4062 133.789 47.4961 133.531L49.3359 128.27H50.4375L47.25 137H46.0547ZM51.4219 137V128.27H57.0996V129.207H52.4766V132.061H56.7598V132.998H52.4766V136.062H57.0996V137H51.4219ZM61.2656 137.141C60.5938 137.141 60.0117 137.021 59.5195 136.783C59.0273 136.541 58.6465 136.199 58.377 135.758C58.1074 135.316 57.9727 134.793 57.9727 134.188H59.0508C59.0508 134.812 59.2441 135.301 59.6309 135.652C60.0215 136.004 60.5664 136.18 61.2656 136.18C61.9023 136.18 62.4121 136.041 62.7949 135.764C63.1816 135.486 63.375 135.113 63.375 134.645C63.375 134.281 63.2441 133.986 62.9824 133.76C62.7207 133.533 62.2754 133.342 61.6465 133.186L60.668 132.945C59.7773 132.727 59.1348 132.434 58.7402 132.066C58.3457 131.699 58.1484 131.219 58.1484 130.625C58.1484 130.121 58.2715 129.684 58.5176 129.312C58.7676 128.938 59.1191 128.646 59.5723 128.439C60.0254 128.232 60.5547 128.129 61.1602 128.129C62.0703 128.129 62.7949 128.373 63.334 128.861C63.877 129.346 64.1602 130.008 64.1836 130.848H63.1406C63.1094 130.301 62.9141 129.873 62.5547 129.564C62.1953 129.252 61.7188 129.096 61.125 129.096C60.5586 129.096 60.0938 129.234 59.7305 129.512C59.3711 129.785 59.1914 130.139 59.1914 130.572C59.1914 130.912 59.3242 131.189 59.5898 131.404C59.8594 131.615 60.3105 131.801 60.9434 131.961L61.9336 132.207C62.7852 132.418 63.4141 132.717 63.8203 133.104C64.2266 133.49 64.4297 133.988 64.4297 134.598C64.4297 135.102 64.2969 135.545 64.0312 135.928C63.7695 136.311 63.4004 136.609 62.9238 136.824C62.4512 137.035 61.8984 137.141 61.2656 137.141Z" fill="black"/>
<line y1="28.5" x2="440" y2="28.5" stroke="black"/>
<line y1="69.5" x2="440" y2="69.5" stroke="black"/>
<line y1="112.5" x2="440" y2="112.5" stroke="black"/>
<line x1="81.5" y1="2.05077e-08" x2="81.5" y2="153" stroke="black"/>
<line x1="201.5" y1="1.98241e-08" x2="201.5" y2="153" stroke="black"/>
<line x1="321.5" y1="1.98241e-08" x2="321.5" y2="153" stroke="black"/>
<rect x="82" width="119" height="29" fill="#1E1E1E"/>
<rect width="81" height="29" fill="#1E1E1E"/>
<rect x="202" width="119" height="29" fill="#1E1E1E"/>
<rect x="322" width="118" height="29" fill="#1E1E1E"/>
<line x1="0.5" y1="28" x2="0.499995" y2="153" stroke="black"/>
<path d="M440 0V153H0" stroke="#4E4E4E"/>
<path d="M140.885 19.1406C139.803 19.1406 138.955 18.877 138.342 18.3496C137.732 17.8184 137.428 17.0859 137.428 16.1523H138.945C138.953 16.6797 139.127 17.0918 139.467 17.3887C139.811 17.6855 140.287 17.834 140.896 17.834C141.439 17.834 141.877 17.7207 142.209 17.4941C142.541 17.2637 142.707 16.957 142.707 16.5742C142.707 16.2656 142.582 16.0156 142.332 15.8242C142.082 15.6289 141.666 15.4648 141.084 15.332L140.146 15.1211C139.275 14.9219 138.633 14.627 138.219 14.2363C137.805 13.8457 137.598 13.3438 137.598 12.7305C137.598 12.2109 137.73 11.7559 137.996 11.3652C138.266 10.9746 138.641 10.6719 139.121 10.457C139.605 10.2383 140.168 10.1289 140.809 10.1289C141.785 10.1289 142.559 10.377 143.129 10.873C143.703 11.3691 144.002 12.0508 144.025 12.918H142.555C142.523 12.457 142.352 12.0957 142.039 11.834C141.727 11.5723 141.314 11.4414 140.803 11.4414C140.318 11.4414 139.922 11.5547 139.613 11.7812C139.305 12.0078 139.15 12.2988 139.15 12.6543C139.15 12.9473 139.271 13.1855 139.514 13.3691C139.76 13.5488 140.168 13.7031 140.738 13.832L141.623 14.0371C142.529 14.2363 143.193 14.5332 143.615 14.9277C144.037 15.3223 144.248 15.8398 144.248 16.4805C144.248 17.0234 144.111 17.4941 143.838 17.8926C143.564 18.291 143.176 18.5996 142.672 18.8184C142.168 19.0332 141.572 19.1406 140.885 19.1406Z" fill="white"/>
<path d="M257.727 19V10.2695H259.953L261.652 14.8574C261.734 15.0996 261.838 15.416 261.963 15.8066C262.088 16.1934 262.201 16.5566 262.303 16.8965C262.404 16.5566 262.516 16.1934 262.637 15.8066C262.762 15.416 262.865 15.0996 262.947 14.8574L264.617 10.2695H266.855V19H265.332V14.5469C265.332 14.2383 265.338 13.8594 265.35 13.4102C265.361 12.9609 265.373 12.5137 265.385 12.0684C265.229 12.5605 265.08 13.0312 264.939 13.4805C264.799 13.9258 264.682 14.2812 264.588 14.5469L262.924 19H261.658L259.982 14.5469C259.893 14.293 259.777 13.9551 259.637 13.5332C259.5 13.1074 259.355 12.6602 259.203 12.1914C259.215 12.6211 259.225 13.0488 259.232 13.4746C259.244 13.8965 259.25 14.2539 259.25 14.5469V19H257.727Z" fill="white"/>
<path d="M375.727 19V10.2695H377.273V17.6582H381.322V19H375.727Z" fill="white"/>
</svg>
